<svg xmlns="http://www.w3.org/2000/svg" viewBox="0 0 64 64" role="img" aria-label="Jeju-Tour Plan logo">
  <defs>
    <linearGradient id="sea" x1="8" y1="10" x2="56" y2="56" gradientUnits="userSpaceOnUse">
      <stop offset="0" stop-color="#45e0c1"/>
      <stop offset="0.55" stop-color="#087c83"/>
      <stop offset="1" stop-color="#061820"/>
    </linearGradient>
    <linearGradient id="sun" x1="20" y1="12" x2="44" y2="44" gradientUnits="userSpaceOnUse">
      <stop offset="0" stop-color="#ffc85c"/>
      <stop offset="1" stop-color="#ff745f"/>
    </linearGradient>
  </defs>
  <rect width="64" height="64" rx="18" fill="#061820"/>
  <path d="M13 38c6-13 16-22 30-27 5 8 7 18 5 29-12 3-24 3-35-2Z" fill="url(#sea)"/>
  <circle cx="43" cy="18" r="7" fill="url(#sun)"/>
  <path d="M16 43c9-4 17-5 25-3 3 .8 5.7 2 8 3.7" fill="none" stroke="#c9fff2" stroke-width="4" stroke-linecap="round"/>
  <path d="M20 30c5 4 10 6 16 6 4 0 8-.8 12-2.5" fill="none" stroke="#fffdf7" stroke-width="3" stroke-linecap="round" opacity=".92"/>
  <path d="M29 24l5 9 7-13" fill="none" stroke="#fffdf7" stroke-width="3.5" stroke-linecap="round" stroke-linejoin="round"/>
</svg>
