<svg xmlns="http://www.w3.org/2000/svg" viewBox="0 0 64 64" role="img" aria-label="Jeju-Tour Plan logo">
  <defs>
    <linearGradient id="island" x1="11" y1="17" x2="54" y2="43" gradientUnits="userSpaceOnUse">
      <stop offset="0" stop-color="#66e2c7"/>
      <stop offset="0.52" stop-color="#0f9aa3"/>
      <stop offset="1" stop-color="#087c83"/>
    </linearGradient>
    <linearGradient id="wheel" x1="13" y1="34" x2="51" y2="55" gradientUnits="userSpaceOnUse">
      <stop offset="0" stop-color="#fff7d7"/>
      <stop offset="1" stop-color="#ffc85c"/>
    </linearGradient>
    <linearGradient id="lava" x1="30" y1="18" x2="42" y2="35" gradientUnits="userSpaceOnUse">
      <stop offset="0" stop-color="#ff8f70"/>
      <stop offset="1" stop-color="#ff5f57"/>
    </linearGradient>
  </defs>
  <rect width="64" height="64" rx="16" fill="#061820"/>
  <path d="M10.5 34.2c2.2-6.4 8.8-12.7 18-16.4 7.7-3.1 16-3.4 22.9-.6 3.3 5.9 2.4 13.7-1.3 19.5-11.1 4.7-25.6 4.4-39.6-2.5Z" fill="url(#island)"/>
  <path d="M25.1 29.7c3.2-4.7 5.6-7.7 7.4-9 2.4 2.1 4.7 5.1 7.1 9" fill="none" stroke="#fffdf7" stroke-width="3.2" stroke-linecap="round" stroke-linejoin="round"/>
  <path d="M32.5 20.7c1.1 2.6 1.4 5.5 1 8.6" fill="none" stroke="url(#lava)" stroke-width="2.7" stroke-linecap="round"/>
  <circle cx="20" cy="45" r="9.3" fill="none" stroke="url(#wheel)" stroke-width="4.2"/>
  <circle cx="45" cy="45" r="9.3" fill="none" stroke="url(#wheel)" stroke-width="4.2"/>
  <path d="M20 45h8.8l6.1-10.5 10.1 10.5H29.2l-5.2-13.1" fill="none" stroke="#fffdf7" stroke-width="3.6" stroke-linecap="round" stroke-linejoin="round"/>
  <path d="M33.9 34.5h5.6" fill="none" stroke="#fffdf7" stroke-width="3.2" stroke-linecap="round"/>
  <path d="M24 31.9h-4.3" fill="none" stroke="#fffdf7" stroke-width="3.2" stroke-linecap="round"/>
  <path d="M13.8 47.3c5.6 3.3 12.1 5 19.3 5 6.7 0 12.4-1.4 17.4-4.1" fill="none" stroke="#45e0c1" stroke-width="2.2" stroke-linecap="round" opacity=".75"/>
</svg>
